<?xml version="1.0" encoding="utf-8"?><!-- Uploaded to: SVG Repo, www.svgrepo.com, Generator: SVG Repo Mixer Tools -->
<svg fill="#000000" width="800px" height="800px" viewBox="0 0 24 24" id="dumbbell-2" data-name="Flat Color" xmlns="http://www.w3.org/2000/svg" class="icon flat-color"><path id="secondary" d="M17,10.66l-.22,0A1,1,0,0,1,16,9.44L17,5.21a1,1,0,0,0-.19-.84A1,1,0,0,0,16,4H8a1,1,0,0,0-.78.37A1,1,0,0,0,7,5.21L8,9.44A1,1,0,1,1,6,9.87L5.07,5.65A3,3,0,0,1,8,2h8a3,3,0,0,1,2.93,3.65L18,9.88A1,1,0,0,1,17,10.66Z" style="fill: #ffffff;"></path><path id="primary" d="M20.89,14.57A9,9,0,0,0,3,16a9,9,0,0,0,1.25,4.57A3,3,0,0,0,6.82,22H17.18a3,3,0,0,0,2.56-1.43A8.91,8.91,0,0,0,20.89,14.57Z" style="fill: #ffffff;"></path></svg>