<?xml version="1.0" encoding="iso-8859-1"?>
<!-- Uploaded to: SVG Repo, www.svgrepo.com, Generator: SVG Repo Mixer Tools -->
<svg version="1.1" id="Layer_1" xmlns="http://www.w3.org/2000/svg" xmlns:xlink="http://www.w3.org/1999/xlink" 
	 viewBox="0 0 512 512" xml:space="preserve">
<path style="fill:#000;" d="M328.555,3.913H183.447c-64.071,0-110.932,60.44-94.97,122.492l31.81,124.332l272.404-3.002
	l30.835-121.33C439.486,64.353,392.626,3.913,328.555,3.913z M372.915,148.798l-14.427,56.085l-204.973,0.005l-14.429-56.089
	c-11.14-43.306,21.564-85.487,66.279-85.487h101.27C351.351,63.312,384.054,105.492,372.915,148.798z"/>
<polygon style="fill:#000;" points="367.564,169.455 358.451,204.882 153.477,204.887 144.363,169.455 99.453,169.455 
	120.249,250.737 392.653,247.735 412.548,169.455 "/>
<circle style="fill:#000;" cx="255.293" cy="335.094" r="165.645"/>
<path style="fill:#000;" d="M255.292,476c-87.297,0-158.817-67.533-165.177-153.204c-0.305,4.106-0.463,8.252-0.463,12.436
	c0,91.481,74.159,165.64,165.64,165.64s165.64-74.159,165.64-165.64c0-4.184-0.159-8.33-0.463-12.436
	C414.108,408.469,342.588,476,255.292,476z"/>
<rect x="203.771" y="3.913" style="fill:#000;" width="104.46" height="59.471"/>
<path d="M430.874,131.972c8.197-31.865,1.335-65.054-18.824-91.057C391.889,14.913,361.457,0,328.555,0H183.447
	c-32.902,0-63.336,14.913-83.495,40.916c-20.161,26.003-27.022,59.191-18.825,91.056l28.467,110.665
	c0.203,0.791,0.528,1.519,0.943,2.173c-17.555,27.084-27.764,59.352-27.764,93.962C82.771,434.29,160.482,512,256,512
	s173.229-77.71,173.229-173.229c0-34.614-10.211-66.885-27.77-93.971c0.414-0.654,0.746-1.374,0.949-2.164L430.874,131.972z
	 M256,496.823c-87.15,0-158.051-70.901-158.051-158.051S168.85,180.72,256,180.72s158.051,70.901,158.051,158.051
	S343.15,496.823,256,496.823z M146.435,150.584c-4.72-18.352-0.769-37.468,10.843-52.444c11.612-14.975,29.138-23.564,48.088-23.564
	h101.27c18.949,0,36.476,8.588,48.087,23.564c11.611,14.976,15.564,34.09,10.843,52.443l-11.667,45.355
	c-27.87-19.162-61.595-30.396-97.898-30.396s-70.028,11.234-97.898,30.396L146.435,150.584z M367.009,205.895l13.256-51.531
	c5.898-22.93,0.96-46.813-13.547-65.523s-36.405-29.442-60.082-29.442h-101.27c-23.676,0-45.575,10.731-60.083,29.442
	c-14.507,18.711-19.445,42.594-13.547,65.523l13.256,51.531c-8.436,7.058-16.191,14.902-23.153,23.42L95.825,128.189
	c-7.02-27.287-1.143-55.708,16.12-77.975c17.265-22.266,43.326-35.037,71.501-35.037h145.108c28.176,0,54.237,12.771,71.5,35.037
	c17.265,22.267,23.139,50.688,16.12,77.975l-26.013,101.125C383.2,220.797,375.444,212.954,367.009,205.895z"/>
</svg>