<?xml version="1.0" encoding="iso-8859-1"?>
<!-- Uploaded to: SVG Repo, www.svgrepo.com, Generator: SVG Repo Mixer Tools -->
<svg version="1.1" id="Layer_1" xmlns="http://www.w3.org/2000/svg" xmlns:xlink="http://www.w3.org/1999/xlink" 
	 viewBox="0 0 511.999 511.999" xml:space="preserve">
<path style="fill:#F6954F;" d="M58.383,256.001c0,70.794,5.601,135.004,38.489,182.085h318.254
	c32.887-47.081,38.489-111.291,38.489-182.085s-5.601-135.004-38.489-182.085H96.872C63.984,120.995,58.383,185.207,58.383,256.001z
	"/>
<path style="fill:#FFB085;" d="M453.617,256.001c0,66.577-3.253,127.32-32.753,173.483c-1.876,2.931-3.781,5.789-5.745,8.602H96.877
	c-1.964-2.814-3.869-5.671-5.745-8.602c-29.5-46.162-32.753-106.906-32.753-173.483s3.253-127.32,32.753-173.483
	c1.876-2.931,3.781-5.789,5.745-8.602h318.242c1.964,2.814,3.869,5.671,5.745,8.602C450.365,128.68,453.617,189.424,453.617,256.001
	z"/>
<g>
	<path style="fill:#C97767;" d="M453.617,256.001c0,66.577-3.253,127.32-32.753,173.483c-29.5-46.162-32.753-106.906-32.753-173.483
		s3.253-127.32,32.753-173.483C450.365,128.68,453.617,189.424,453.617,256.001z"/>
	<path style="fill:#C97767;" d="M123.885,256.001c0,66.577-3.253,127.32-32.753,173.483c-29.5-46.162-32.753-106.906-32.753-173.483
		s3.253-127.32,32.753-173.483C120.633,128.68,123.885,189.424,123.885,256.001z"/>
</g>
<g>
	<rect x="90.975" y="14.655" style="fill:#00AE90;" width="330.054" height="58.736"/>
	<rect x="90.975" y="438.602" style="fill:#00AE90;" width="330.054" height="58.736"/>
</g>
<g>
	<path style="fill:#C97767;" d="M200.276,256.001c0,40.026,24.948,72.475,55.723,72.475v-144.95
		C225.224,183.526,200.276,215.973,200.276,256.001z"/>
	<path style="fill:#C97767;" d="M255.999,183.526v144.95c30.775,0,55.723-32.449,55.723-72.475
		C311.721,215.973,286.773,183.526,255.999,183.526z"/>
</g>
<path d="M255.998,168.871c-38.806,0-70.378,39.087-70.378,87.13s31.571,87.13,70.378,87.13s70.378-39.087,70.378-87.13
	S294.805,168.871,255.998,168.871z M214.931,256.001c0-24.119,11.136-45.356,26.414-53.865v107.73
	C226.065,301.357,214.931,280.119,214.931,256.001z M270.653,309.864v-107.73c15.278,8.509,26.414,29.746,26.414,53.865
	S285.932,301.357,270.653,309.864z"/>
<path d="M353.61,126.248c-0.366-0.892-0.821-1.742-1.348-2.534c-0.542-0.806-1.143-1.555-1.832-2.229
	c-0.674-0.674-1.422-1.29-2.228-1.816c-0.791-0.528-1.641-0.982-2.521-1.348c-0.894-0.366-1.803-0.645-2.74-0.835
	c-1.89-0.381-3.84-0.381-5.73,0c-0.938,0.191-1.861,0.469-2.74,0.835s-1.744,0.821-2.535,1.348
	c-0.806,0.526-1.553,1.142-2.228,1.816c-0.674,0.674-1.29,1.423-1.817,2.229c-0.528,0.791-0.982,1.641-1.348,2.534
	c-0.366,0.881-0.645,1.803-0.835,2.74c-0.191,0.939-0.293,1.905-0.293,2.858c0,3.854,1.568,7.635,4.294,10.361
	c0.674,0.674,1.422,1.29,2.228,1.832c0.791,0.526,1.656,0.982,2.535,1.348c0.879,0.366,1.803,0.643,2.74,0.835
	c0.938,0.191,1.905,0.277,2.858,0.277c0.967,0,1.92-0.088,2.872-0.277c0.938-0.192,1.861-0.469,2.74-0.835
	c0.879-0.366,1.729-0.822,2.521-1.348c0.806-0.542,1.553-1.158,2.228-1.832c0.689-0.674,1.29-1.423,1.832-2.229
	c0.528-0.791,0.982-1.641,1.348-2.521c0.366-0.894,0.645-1.817,0.835-2.74c0.191-0.951,0.278-1.92,0.278-2.872
	s-0.088-1.92-0.278-2.858C354.255,128.05,353.976,127.127,353.61,126.248z"/>
<path d="M185.447,374.543c-0.352-0.881-0.806-1.731-1.334-2.522c-0.542-0.806-1.158-1.553-1.832-2.228
	c-3.4-3.415-8.456-4.968-13.219-4.015c-0.938,0.191-1.861,0.469-2.74,0.835c-0.894,0.366-1.744,0.821-2.535,1.348
	c-0.806,0.542-1.553,1.143-2.228,1.832c-0.674,0.674-1.29,1.422-1.817,2.228c-0.528,0.791-0.982,1.641-1.348,2.522
	c-0.366,0.892-0.645,1.801-0.835,2.74c-0.191,0.951-0.293,1.92-0.293,2.872c0,0.951,0.103,1.92,0.293,2.856
	c0.191,0.939,0.469,1.863,0.835,2.74c0.366,0.894,0.821,1.744,1.348,2.535c0.528,0.806,1.143,1.553,1.817,2.228
	c0.674,0.674,1.422,1.29,2.228,1.817c0.791,0.528,1.641,0.982,2.535,1.348c0.879,0.366,1.803,0.645,2.74,0.835
	c0.938,0.191,1.905,0.293,2.858,0.293c3.869,0,7.635-1.568,10.361-4.295c0.674-0.674,1.29-1.422,1.832-2.228
	c0.528-0.791,0.982-1.641,1.334-2.535c0.366-0.879,0.659-1.801,0.835-2.74c0.191-0.938,0.293-1.905,0.293-2.856
	c0-0.953-0.103-1.921-0.293-2.872C186.106,376.345,185.813,375.437,185.447,374.543z"/>
<path d="M468.273,256.001c0-62.763-2.622-128.131-33.218-178.378c0.403-1.341,0.624-62.968,0.624-62.968
	C435.68,6.562,429.119,0,421.025,0H90.972c-8.094,0-14.655,6.562-14.655,14.655c0,0,0.223,61.628,0.626,62.967
	c-30.595,50.247-33.218,115.614-33.218,178.378s2.622,128.131,33.218,178.377c-0.403,1.339-0.626,2.757-0.626,4.226v58.741
	c0,8.092,6.561,14.655,14.655,14.655h330.054c8.094,0,14.655-6.562,14.655-14.655c0,0-0.223-61.628-0.626-62.967
	C465.65,384.132,468.273,318.764,468.273,256.001z M105.627,29.309h300.745v29.431H105.627V29.309z M381.268,365.497H215.886
	c-8.094,0-14.655,6.562-14.655,14.655s6.561,14.655,14.655,14.655h172.902c3.271,10.09,7.234,19.838,12.03,29.144H111.177
	c25.087-48.676,27.363-109.445,27.363-167.949c0-36.794-0.907-74.481-7.811-109.497h165.38c8.094,0,14.655-6.562,14.655-14.655
	s-6.561-14.655-14.655-14.655H123.207c-3.271-10.09-7.234-19.838-12.03-29.144H400.82c-25.087,48.676-27.363,109.445-27.363,167.949
	C373.456,292.794,374.363,330.48,381.268,365.497z M73.033,256.001c0-51.457,1.594-101.044,18.099-141.56
	c16.504,40.514,18.099,90.102,18.099,141.56s-1.594,101.044-18.099,141.56C74.628,357.045,73.033,307.458,73.033,256.001z
	 M406.37,482.69H105.627v-29.431h300.745v29.431H406.37z M420.865,397.56c-16.504-40.514-18.099-90.102-18.099-141.56
	s1.594-101.044,18.099-141.56c16.504,40.514,18.099,90.102,18.099,141.56S437.369,357.045,420.865,397.56z"/>
</svg>