<?xml version="1.0" encoding="iso-8859-1"?>
<!-- Uploaded to: SVG Repo, www.svgrepo.com, Generator: SVG Repo Mixer Tools -->
<svg height="800px" width="800px" version="1.1" id="Layer_1" xmlns="http://www.w3.org/2000/svg" xmlns:xlink="http://www.w3.org/1999/xlink" 
	 viewBox="0 0 511.998 511.998" xml:space="preserve">
<path style="fill:#D21E1E;" d="M454.981,256c0,9.952-0.648,19.756-1.894,29.372h31.268v-58.745h-31.268
	C454.333,236.244,454.981,246.048,454.981,256z"/>
<path d="M498.753,198.981h-51.008c-25.369-97.933-114.5-170.474-220.255-170.474C102.052,28.508,0,130.561,0,256
	s102.052,227.491,227.491,227.491c105.754,0,194.886-72.539,220.253-170.474h51.008c7.633,0,13.247-6.189,13.247-13.822v-86.389
	C512,205.17,506.386,198.981,498.753,198.981z M484.355,285.372h-31.268c1.246-9.617,1.894-19.42,1.894-29.372
	c0-9.952-0.648-19.756-1.894-29.372h31.268V285.372z M227.491,455.844c-110.195,0-199.846-89.65-199.846-199.844
	S117.296,56.152,227.491,56.152s199.846,89.651,199.846,199.846S337.685,455.844,227.491,455.844z"/>
<path style="fill:#FFB8A7;" d="M427.337,256c0-110.195-89.651-199.846-199.846-199.846S27.645,145.804,27.645,256
	s89.651,199.846,199.846,199.846S427.337,366.195,427.337,256z M227.491,426.695c-94.123,0-170.695-76.574-170.695-170.697
	S133.368,85.302,227.491,85.302s170.697,76.574,170.697,170.697S321.614,426.695,227.491,426.695z"/>
<path style="fill:#BE6419;" d="M370.543,256c0-78.879-64.173-143.052-143.052-143.052c-78.877,0-143.05,64.173-143.05,143.052
	s64.173,143.052,143.05,143.052C306.369,399.05,370.543,334.879,370.543,256z M305.467,289.034
	c-12.079,19.555-31.662,38.404-58.204,56.017c-5.878,3.901-12.715,5.963-19.773,5.963c-7.058,0-13.897-2.061-19.773-5.963
	c-26.542-17.613-46.123-36.46-58.206-56.015c-14.66-23.735-15.597-44.117-13.802-57.038c3.424-24.649,19.64-45.054,41.32-51.993
	c6.547-2.091,13.107-3.151,19.498-3.151c8.214,0.002,19.073,1.766,30.152,8.661c9.137-5.762,19.647-8.819,30.815-8.819
	c6.702,0,13.584,1.114,20.478,3.314c21.663,6.935,37.873,27.34,41.296,51.987C321.064,244.916,320.126,265.299,305.467,289.034z"/>
<path d="M398.187,256c0-94.123-76.574-170.697-170.697-170.697S56.796,161.877,56.796,256s76.572,170.697,170.695,170.697
	S398.187,350.121,398.187,256z M227.491,399.05c-78.877,0-143.05-64.173-143.05-143.052s64.173-143.052,143.05-143.052
	c78.879,0,143.052,64.173,143.052,143.052S306.369,399.05,227.491,399.05z"/>
<path style="fill:#FFFFFF;" d="M269.545,206.338c-4.28-1.367-8.304-1.997-12.05-1.997c-10.296,0-18.517,4.765-24.381,12.088
	c-1.567,1.959-3.841,2.929-6.13,2.929c-2.236,0-4.487-0.924-6.108-2.763c-6.189-7.01-14.132-12.096-24.35-12.098
	c-3.431,0-7.117,0.574-11.084,1.84c-23.925,7.656-48.953,58.268,37.559,115.675c1.358,0.904,2.922,1.353,4.489,1.353
	c1.564,0,3.129-0.451,4.489-1.353C318.488,264.604,293.459,213.994,269.545,206.338z"/>
<path d="M277.973,180.01c-6.892-2.199-13.776-3.314-20.478-3.314c-11.168,0-21.679,3.056-30.815,8.819
	c-11.079-6.894-21.938-8.66-30.152-8.661c-6.391,0-12.951,1.061-19.498,3.151c-21.68,6.939-37.896,27.344-41.32,51.993
	c-1.795,12.919-0.859,33.301,13.802,57.038c12.081,19.555,31.662,38.402,58.206,56.015c5.876,3.901,12.715,5.963,19.773,5.963
	c7.058,0,13.895-2.061,19.773-5.963c26.54-17.613,46.123-36.46,58.204-56.017c14.659-23.733,15.597-44.116,13.802-57.036
	C315.846,207.351,299.636,186.946,277.973,180.01z M227.491,323.368c-1.565,0-3.129-0.451-4.489-1.353
	c-86.512-57.409-61.483-108.019-37.559-115.675c3.967-1.266,7.652-1.84,11.084-1.84c10.218,0.002,18.161,5.088,24.35,12.098
	c1.621,1.837,3.872,2.763,6.108,2.763c2.289,0,4.563-0.971,6.13-2.929c5.866-7.322,14.085-12.088,24.381-12.088
	c3.746,0,7.768,0.631,12.05,1.997c23.914,7.656,48.943,58.266-37.566,115.675C230.62,322.917,229.054,323.368,227.491,323.368z"/>
</svg>