<svg width="1602" height="272" viewBox="0 0 1602 272" fill="none" xmlns="http://www.w3.org/2000/svg">
<rect y="91" width="1600" height="181" fill="white"/>
<rect width="1600" height="181" fill="#362018"/>
<path d="M7.67285 185.175C10.4651 185.524 18.1544 189.46 20.9198 186.003C23.5438 182.723 33.0683 185.192 34.1668 188.487" stroke="#362018" stroke-width="6" stroke-linecap="round"/>
<path d="M27.5439 186.832C27.7789 188.712 29.4336 189.433 30.8557 190.144" stroke="#362018" stroke-width="6" stroke-linecap="round"/>
<line x1="0.00624951" y1="189.5" x2="1600.01" y2="209.5" stroke="#362018"/>
<path d="M24.2314 203.391V205.046" stroke="#362018" stroke-width="6" stroke-linecap="round"/>
<path d="M63.9727 188.488C76.1714 188.488 84.4194 172.585 97.0901 178.921C102.744 181.748 111.185 188.488 116.133 188.488C123.334 188.488 129.609 190.524 136.831 190.144C145.614 189.682 147.147 182.885 152.562 178.553C156.345 175.526 145.363 182.527 141.431 183.888C132.968 186.818 124.022 183.277 116.133 187.66C111.094 190.459 101.109 188.488 95.4342 188.488" stroke="#362018" stroke-width="6" stroke-linecap="round"/>
<path d="M29.1992 170.273C29.1992 178.542 31.1516 181.918 39.5024 184.808C47.0161 187.409 55.314 189.968 63.1446 191.708C79.2054 195.277 97.1366 193.456 113.649 193.456C128.655 193.456 149.138 197.09 163.417 192.628C171.821 190.001 181.465 191.833 189.819 188.12C195.976 185.384 200.908 186.246 207.297 185.084C211.741 184.276 213.85 181.865 218.704 181.865C222.323 181.865 225.941 181.865 229.56 181.865C236.26 181.865 242.55 182.056 248.694 180.301C259.197 177.3 279.094 183.504 289.079 186.832C293.436 188.285 300.097 187.625 303.706 190.512C305.351 191.828 314.2 195.111 316.493 195.111C322.685 195.111 326.574 198.423 332.224 198.423C338.847 198.423 344.803 200.079 351.174 200.079C366.936 200.079 382.697 200.079 398.458 200.079C414.754 200.079 429.734 195.729 445.007 193.548C458.838 191.572 472.425 190.144 486.955 190.144C501.643 190.144 514.536 187.944 528.352 191.892C541.881 195.757 555.994 198.423 570.577 198.423C588.257 198.423 608.07 197.285 624.485 190.972C632.04 188.066 638.77 188.488 646.839 188.488C659.129 188.488 671.019 186.832 683.268 186.832C702.221 186.832 719.42 187.614 736.256 196.031C742.898 199.352 749.553 198.423 757.046 198.423C764.713 198.423 771.899 201.735 779.309 201.735C797.735 201.735 815.724 203.391 834.32 203.391C862.025 203.391 887.232 189.014 915.09 188.488C935.778 188.098 955.621 186.71 974.701 194.744C980.539 197.202 991.54 198.423 997.976 198.423C1005.67 198.423 1013.37 198.423 1021.07 198.423C1033.62 198.423 1047.63 200.1 1059.52 203.759C1067.08 206.086 1078.55 206.703 1086.47 206.703C1098.16 206.703 1109.86 208.358 1121.71 208.358C1152.55 208.358 1182.63 203.974 1213.15 198.791C1239.87 194.253 1267.58 191.8 1294.65 191.8C1308.32 191.8 1320.31 204.285 1334.03 205.047C1349.35 205.898 1364.64 208.358 1380.39 208.358C1396.95 208.358 1413.51 208.358 1430.07 208.358C1446.38 208.358 1463.39 206.703 1480.11 206.703C1488.26 206.703 1496.57 206.188 1503.84 208.266C1509.41 209.858 1515.5 214.65 1521.14 214.982C1536.78 215.902 1550.43 210.572 1565.48 210.014C1570.85 209.815 1580.1 210.193 1584.89 207.531C1588.32 205.625 1597.62 206.083 1598.96 203.391" stroke="#362018" stroke-width="6" stroke-linecap="round"/>
<path d="M188.163 188.488C200.858 188.488 213.553 188.488 226.248 188.488C234.714 188.488 243.144 191.8 251.914 191.8C271.071 191.8 289.794 190.144 309.042 190.144" stroke="#362018" stroke-width="6" stroke-linecap="round"/>
<path d="M448.135 195.111C451.432 198.079 462.772 201.735 467.177 201.735C474.734 201.735 483.137 203.391 491.187 203.391C506.681 203.391 530.877 203.977 544.175 195.111" stroke="#362018" stroke-width="6" stroke-linecap="round"/>
<path d="M605.442 195.111C615.859 195.111 623.219 196.394 632.764 198.515C645.73 201.396 657.462 201.735 671.677 201.735C698.037 201.735 724.655 198.423 751.159 198.423" stroke="#362018" stroke-width="6" stroke-linecap="round"/>
<path d="M870.382 195.111C876.251 205.545 899.539 203.391 909.755 203.391C919.996 203.391 929.843 205.047 939.928 205.047C950.968 205.047 962.007 205.047 973.046 205.047C981.401 205.047 986.902 202.636 994.572 200.079" stroke="#362018" stroke-width="6" stroke-linecap="round"/>
<path d="M1191.62 205.047C1200.06 205.047 1207.51 207.861 1215.81 208.267C1228.34 208.878 1240.58 208.682 1252.98 209.922C1266.86 211.311 1281.08 213.326 1295.02 213.326C1305.54 213.326 1316.06 213.326 1326.57 213.326C1335.98 213.326 1344.32 208.359 1353.9 208.359" stroke="#362018" stroke-width="6" stroke-linecap="round"/>
<path d="M1529.42 188.487C1506.31 187.36 1483.31 183.92 1460.24 182.232C1456.01 181.923 1428.93 182.182 1445.52 179.196C1456.41 177.237 1470.84 176.194 1480.85 171.193C1489.43 166.899 1461.55 171.658 1452.14 173.584C1444.48 175.154 1452.47 175.426 1455.27 175.608C1467.96 176.436 1480.64 176.839 1493.36 176.896C1518.13 177.007 1542.91 176.896 1567.69 176.896C1583.75 176.896 1535.57 175.784 1519.57 174.412C1513.78 173.915 1496.54 172.977 1502.28 172.021C1509.81 170.765 1518.5 171.929 1526.11 171.929C1528.56 171.929 1558.17 172.045 1547.08 175.608C1542.56 177.062 1508.23 185.176 1527.3 185.176C1537.48 185.176 1547.66 185.176 1557.84 185.176C1577.87 185.176 1517.79 187.128 1497.77 186.463C1495.83 186.399 1462.67 187.763 1470.17 180.576C1471.62 179.191 1473.65 179.539 1472.38 181.864C1469.68 186.811 1462.63 187.96 1457.66 188.303C1440.37 189.496 1421.45 188.264 1405.14 182.048C1401.16 180.534 1410.48 178.895 1411.85 178.552" stroke="#362018" stroke-width="6" stroke-linecap="round"/>
<path d="M1385.36 181.864C1366.8 185.84 1347.66 188.133 1329.79 194.743C1325.54 196.315 1317.03 199.011 1326.3 200.814C1340.88 203.649 1357.6 201.872 1369.07 191.799C1383.06 179.516 1367.68 165.299 1355 161.073C1341.65 156.623 1324.09 158.978 1324.09 175.976C1324.09 179.313 1328.29 178.552 1322.99 178.552C1292.49 178.552 1261.67 177.573 1231.55 183.152C1211.3 186.901 1241.85 185.175 1247 185.175C1250.16 185.175 1285.48 185.175 1268.99 185.175C1243 185.175 1217.2 185.888 1191.62 190.787C1179.62 193.084 1194.11 191.799 1198.24 191.799C1207.75 191.799 1179.28 193.504 1169.91 195.111C1162.85 196.321 1162.2 199.449 1159.33 194.283C1155.29 187.005 1124.15 191.76 1118.21 191.799C1095.16 191.951 1072.2 193.115 1049.22 194.743C1036.65 195.632 1023.36 198.238 1010.76 198.238C1008.48 198.238 1009.79 194.151 1009.38 192.719C1008.65 190.138 994.928 189.006 993.284 188.855C980.167 187.65 966.708 188.487 953.543 188.487C944.777 188.487 945.725 187.443 939.56 183.519C929.548 177.148 913.517 178.44 902.211 177.724C892.733 177.124 883.28 176.896 873.785 176.896C872.037 176.896 870.262 176.675 868.542 176.988C861.049 178.35 883.742 178.06 891.356 178.184C928.086 178.78 964.829 178.552 1001.56 178.552C1013.64 178.552 977.368 179.327 965.41 181.036C959.379 181.897 951.753 181.779 946.092 184.255C945.888 184.345 958.679 185.042 959.707 184.991C970.757 184.446 981.694 182.727 992.732 182.048C997.848 181.733 1006.3 181.788 995.124 181.864C935.062 182.272 874.96 185.175 814.91 185.175C802.92 185.175 790.931 185.175 778.941 185.175C771.704 185.175 764.467 185.175 757.23 185.175C755.788 185.175 760.121 185.16 761.554 184.991C769.37 184.072 776.859 181.024 784.276 178.552" stroke="#362018" stroke-width="6" stroke-linecap="round"/>
<path d="M4.36133 181.865C9.8809 181.865 15.4005 181.865 20.92 181.865C24.5252 181.865 26.2562 178.553 30.0273 178.553C34.6457 178.553 39.3385 175.259 44.1022 177.265C47.8488 178.843 49.6918 180.738 53.2095 182.693C61.6827 187.4 73.7293 185.177 83.4751 185.177C94.6983 185.177 61.0289 185.177 49.8058 185.177C42.098 185.177 30.2119 181.865 45.0222 181.865C54.6214 181.865 63.576 180.209 73.08 180.209C80.5381 180.209 77.6474 180.744 80.8993 184.809C84.0242 188.715 77.6276 191.788 76.7597 190.052C74.8303 186.193 122.829 188.817 94.7903 186.74C90.0228 186.387 85.3567 185.521 80.5314 185.177C80.3492 185.164 87.4105 182.159 88.8107 181.497C92.038 179.971 98.8256 175.439 102.702 176.989C104.156 177.571 81.1427 180.926 96.1702 183.153C100.484 183.792 112.105 180.606 109.233 183.889C107.214 186.196 97.6318 186.784 94.6063 187.568C89.0233 189.016 82.95 188.488 77.2196 188.488C69.8671 188.488 77.0683 189.086 79.8874 187.568C85.0454 184.791 89.314 186.227 94.5143 184.809C96.7967 184.186 98.5032 181.952 100.77 181.865C103.65 181.754 106.896 182.489 109.509 181.037C112.715 179.256 117.994 180.209 121.56 180.209C128.123 180.209 134.625 178.553 140.971 178.553C150.027 178.553 130.327 181.814 127.816 182.233C121.779 183.239 117.462 185.177 111.441 185.177C100.164 185.177 133.837 182.178 145.11 181.865C148.558 181.769 154.267 182.976 157.345 181.129C159.687 179.724 152.377 183.614 150.446 185.544C147.794 188.197 146.565 188.488 150.906 188.488C166.945 188.488 181.863 181.111 198.098 180.209C202.119 179.986 205.944 178.553 210.241 178.553C214.289 178.553 202.146 178.553 198.098 178.553C184.82 178.553 171.56 183.521 158.357 183.521C137.99 183.521 198.889 178.553 219.257 178.553C223.535 178.553 229.444 177.455 233.607 178.645C235.503 179.187 238.814 182.85 241.151 183.889C246.857 186.425 256.398 186.832 262.677 186.832C269.771 186.832 277.675 182.249 284.203 181.865C291.734 181.422 298.825 180.209 307.018 180.209C308.658 180.209 318.424 181.195 316.401 181.773C309.098 183.859 316.219 183.521 320.633 183.521C330.29 183.521 339.796 182.515 348.782 178.921C369.178 170.763 387.088 179.859 405.082 188.856C417.52 195.075 435.856 191.8 449.791 191.8" stroke="#362018" stroke-width="6" stroke-linecap="round"/>
<path d="M391.835 195.112C368.224 195.112 344.612 195.112 321.001 195.112C312.436 195.112 313.423 194.936 309.41 189.776C308.35 188.414 320.996 188.526 322.289 188.488C332.024 188.202 344.219 185.395 353.75 183.153C364.872 180.536 377.101 181.865 388.523 181.865" stroke="#362018" stroke-width="6" stroke-linecap="round"/>
<path d="M393.491 191.799C395.51 188.21 409.832 184.025 404.714 188.119C404.003 188.688 396.089 191.799 398.458 191.799C401.464 191.799 409.974 190.224 407.474 191.891C404.037 194.182 395.212 197.462 391.007 194.191C386.834 190.945 384.462 186.6 379.508 184.348C375.594 182.569 370.862 185.019 366.629 185.176C355.179 185.6 343.984 188.487 332.224 188.487C330.772 188.487 338.547 188.367 340.135 188.855C344.323 190.144 349.442 191.799 353.842 191.799C371.151 191.799 384.53 190.576 399.378 183.152C403.31 181.186 413.842 178.788 418.329 178.552C428.623 178.01 437.981 181.864 447.307 181.864C457.242 181.864 467.177 181.864 477.112 181.864C484.342 181.864 490.302 185.176 498.179 185.176C508.052 185.176 537.674 185.176 527.8 185.176C511.977 185.176 496.155 185.176 480.332 185.176C474.352 185.176 470.19 185.913 464.601 187.659C459.542 189.241 454.047 187.348 449.698 190.971C445.858 194.171 433.436 191.731 428.264 193.455" stroke="#362018" stroke-width="6" stroke-linecap="round"/>
<path d="M208.033 201.734H213.001" stroke="#362018" stroke-width="6" stroke-linecap="round"/>
<path d="M211.345 201.734H214.656" stroke="#362018" stroke-width="6" stroke-linecap="round"/>
<path d="M209.689 201.734C213.416 205.461 216.28 205.046 221.281 205.046" stroke="#362018" stroke-width="6" stroke-linecap="round"/>
<path d="M217.969 200.078C219.964 200.328 220.553 201.734 222.936 201.734" stroke="#362018" stroke-width="6" stroke-linecap="round"/>
<path d="M251.086 205.046C259.037 205.046 265.966 203.391 274.268 203.391" stroke="#362018" stroke-width="6" stroke-linecap="round"/>
<path d="M317.321 205.047H327.257" stroke="#362018" stroke-linecap="round"/>
<path d="M304.074 205.047C299.443 205.047 294.813 205.047 290.183 205.047C290.149 205.047 303.747 206.678 298.186 208.267C291.334 210.225 297.871 201.736 302.418 201.736C305.188 201.736 304.182 205.047 301.59 205.047C296.204 205.047 299.994 208.271 300.394 207.991C306.266 203.88 300.233 202.73 304.074 207.531C305.716 209.585 308.972 205.227 305.729 205.047C300.499 204.757 303.656 204.546 306.557 201C312.025 194.316 297.589 204.946 299.106 205.047C307.45 205.604 314.567 201.884 327.256 198.424" stroke="#362018" stroke-linecap="round"/>
<path d="M353.75 210.014C353.962 211.708 356.878 212.753 356.878 214.153C356.878 216.317 350.634 214.094 352.462 212.038C355.746 208.343 362.963 214.981 366.169 214.981C373.968 214.981 369.378 217.879 363.685 215.349C355.804 211.846 365.401 211.67 369.481 211.67C372.179 211.67 358.687 211.67 361.385 211.67C363.916 211.67 377.799 214.981 368.653 214.981C363.893 214.981 350.002 211.67 354.762 211.67C358.964 211.67 365.02 211.027 366.997 214.981" stroke="#362018" stroke-width="2" stroke-linecap="round"/>
<path d="M146.767 203.392C149.802 203.392 152.838 203.392 155.874 203.392C158.417 203.392 159.537 206.546 156.702 206.703C146.9 207.248 183.807 205.047 163.325 205.047C160.547 205.047 153.1 205.808 159.922 204.955C166.528 204.13 157.964 203.528 156.702 203.024C153.966 201.929 144.924 203.392 147.871 203.392C151.918 203.392 155.966 203.392 160.014 203.392" stroke="#362018" stroke-width="2" stroke-linecap="round"/>
<path d="M603.786 176.896C616.844 176.896 629.728 175.241 642.791 175.241C645.379 175.241 652.507 173.926 654.75 175.609C656.316 176.783 656.9 179.013 658.798 180.208C670.386 187.504 685.71 185.176 698.815 185.176C714.281 185.176 729.357 181.864 744.719 181.864C772.224 181.864 799.731 178.552 827.329 178.552" stroke="#362018" stroke-width="5" stroke-linecap="round"/>
<path d="M771.03 178.552C773.36 178.552 784.109 181.217 781.609 181.772C774.584 183.333 764.996 183.52 757.783 183.52C749.804 183.52 742.107 188.488 733.864 188.488C699.766 188.488 665.667 188.488 631.568 188.488C621.166 188.488 610.038 189.991 600.291 186.004C592.605 182.86 582.731 178.863 574.349 178.552C560.707 178.047 546.764 178.062 533.412 180.116C528.656 180.848 522.955 181.864 518.233 181.864C514.676 181.864 504.005 181.864 507.562 181.864C516.884 181.864 526.206 181.864 535.528 181.864C540.802 181.864 556.625 181.864 551.351 181.864C542.642 181.864 533.933 181.864 525.225 181.864C503.177 181.864 481.13 181.864 459.082 181.864C441.956 181.864 424.74 183.52 407.474 183.52C389.355 183.52 405.816 180.54 414.649 178.552C422.032 176.891 429.678 173.867 437.188 173.033C442.446 172.449 448.227 177.636 453.838 178.184C490.197 181.741 527.558 176.897 564.046 176.897C568.301 176.897 571.162 180.765 573.153 184.348C576.874 191.046 569.828 193.789 564.138 194.927C550.699 197.615 534.588 195.111 520.901 195.111C508.789 195.111 496.676 195.111 484.564 195.111C475.108 195.111 472.264 181.864 481.252 181.864C498.807 181.864 515.171 185.176 532.584 185.176C544.727 185.176 556.87 185.176 569.013 185.176C584.914 185.176 600.966 174.316 617.034 172.021C622.053 171.304 620.998 179.42 618.689 181.864C614.612 186.182 609.86 186.973 604.707 189.316C600.47 191.241 575.708 194.615 587.964 188.488C596.028 184.456 604.604 182.266 612.986 179.472C620.48 176.974 628.861 179.612 636.536 178.184C645.923 176.438 655.388 177.55 664.87 176.069C667.498 175.658 677.718 173.327 679.589 175.977C680.88 177.805 679.72 179.382 681.705 181.036C685.398 184.114 700.146 185.059 705.163 185.176C713.285 185.365 723.43 186.829 731.289 184.808C746.019 181.02 758.429 166.904 772.685 176.069C788.609 186.305 814.094 181.864 832.205 181.864C843.903 181.864 856.075 178.332 867.438 175.977C889.715 171.358 917.428 168.665 939.928 172.665C953.075 175.002 963.478 178.552 976.909 178.552C1010.95 178.552 1044.98 178.552 1079.02 178.552C1118.35 178.552 1157.4 177.863 1196.5 181.772C1203.88 182.511 1212.81 184.569 1220.23 183.428C1221.33 183.259 1201.65 177.661 1198.8 177.265C1186.51 175.558 1173.69 174.649 1161.26 175.241C1144.15 176.055 1195.31 179.308 1212.41 180.208C1388.76 189.49 1166.78 181.864 1341.39 181.864C1354.15 181.864 1359.79 181.769 1343.04 181.864C1340.04 181.881 1304.16 185.106 1304.96 186.004C1306.99 188.287 1316.38 188.338 1318.2 188.488C1338.5 190.155 1358.94 190.089 1379.29 190.144C1397.63 190.193 1452.54 189.11 1434.3 190.971C1417.64 192.671 1399.87 191.881 1383.33 189.316C1369.26 187.132 1391.92 182.98 1395.11 182.6C1408.87 180.965 1436.68 178.546 1446.62 183.52" stroke="#362018" stroke-width="10" stroke-linecap="round"/>
<path d="M1575.78 178.553C1579.34 180.277 1592.97 181.084 1589.4 185.544C1586.9 188.665 1590.69 195.07 1590.69 198.423" stroke="#362018" stroke-width="10" stroke-linecap="round"/>
<path d="M1594 178.553C1594 185.039 1596.66 188.009 1593.17 194.284C1591.55 197.192 1593.54 200.619 1588.66 199.712C1581.61 198.4 1575.88 194.145 1569.16 192.168C1560.92 189.745 1557.68 183.068 1549.93 179.749C1530.06 171.232 1469.94 148.714 1487.93 160.707C1497.4 167.02 1507.16 172.722 1516.36 179.473C1521.02 182.899 1530.61 187.467 1533.93 192.444C1536.29 195.995 1525.41 191.8 1521.14 191.8C1511.18 191.8 1502.63 192.46 1492.99 194.744C1484.52 196.749 1476.81 193.105 1469.07 190.328C1458.54 186.546 1447.22 189.555 1436.51 190.972C1412.33 194.171 1386.03 197.885 1362.73 188.488C1358.17 186.651 1354.8 182.232 1349.85 181.957C1339.96 181.408 1329.94 181.865 1320.04 181.865C1309.4 181.865 1298.76 181.865 1288.12 181.865C1286.29 181.865 1279.7 180.774 1278.09 182.233C1275.34 184.736 1279.31 193.046 1276.99 196.4C1271.9 203.758 1251.63 194.455 1246.17 192.72C1236.58 189.668 1215.93 182.33 1206.62 189.316C1193.58 199.096 1164.88 193.456 1148.94 193.456C1134.48 193.456 1120.84 195.895 1106.34 194.284C1098.28 193.388 1090.25 193.456 1082.15 193.456C1075.16 193.456 1064.05 195.72 1057.68 192.536C1052.05 189.723 1080.67 185.591 1083.25 185.177C1095.87 183.154 1098.13 185.177 1084.17 185.177C1064.15 185.177 1044.3 183.521 1024.29 183.521C1017.67 183.521 1011.39 182.098 1004.88 181.865C1002.21 181.77 996.964 177.905 996.964 180.577C996.964 186.977 1011.34 186.875 1014.81 186.833C1028.54 186.665 1036.99 180.003 1048.85 175.609C1066.09 169.222 1084.72 172.203 1102.57 175.241C1118 177.868 1128.8 190.229 1144.7 192.168C1168.85 195.113 1195.37 195.112 1219.68 195.112C1244.83 195.112 1269.27 189.601 1294.19 194.192C1309.86 197.079 1327.53 195.267 1343.23 193.824C1349.99 193.202 1361.49 191.382 1367.88 194.284C1377.21 198.525 1347.72 190.458 1337.52 189.408C1307.5 186.318 1276.79 191.8 1246.63 191.8C1223.7 191.8 1201.99 189.569 1179.11 188.12C1165.64 187.268 1152.3 186.833 1138.82 186.833C1126.56 186.833 1152.02 180.621 1154 180.301C1175.98 176.736 1199.04 178.553 1221.24 178.553C1227.41 178.553 1219.97 179.202 1218.3 179.473C1206.37 181.415 1194.49 181.741 1182.42 181.865C1157.01 182.126 1131.68 183.521 1106.25 183.521C1101.41 183.521 1094.59 182.266 1089.88 183.613C1082.46 185.732 1105.25 185.177 1112.97 185.177C1144.75 185.177 1049.54 190.144 1017.75 190.144C981.389 190.144 945.206 188.488 908.835 188.488C886.958 188.488 865.244 190.144 843.336 190.144C831.33 190.144 819.567 188.488 807.459 188.488C787.605 188.488 767.764 186.833 748.032 186.833C740.825 186.833 733.619 186.833 726.413 186.833C719.186 186.833 736.155 186.833 737.728 186.833C740.598 186.833 746.648 186.821 749.135 188.856C754.51 193.254 761.114 191.19 767.718 192.168C778.048 193.699 787.173 195.112 797.616 195.112C815.002 195.112 832.389 195.112 849.776 195.112C863.391 195.112 877.006 195.112 890.62 195.112C895.733 195.112 908.263 189.879 911.779 196.032C915.612 202.74 928.179 203.391 934.961 203.391C943.627 203.391 951.785 198.734 960.167 198.424C967.47 198.153 974.846 198.424 982.153 198.424C994.718 198.424 1006.9 197 1019.41 196.768C1029.51 196.581 1039.89 194.841 1049.95 193.824C1063.34 192.47 1077.49 193.061 1090.61 190.144C1098.33 188.43 1105.75 188.488 1113.61 188.488C1118.36 188.488 1118.08 194.489 1123.91 195.02C1134.91 196.02 1147.3 196.768 1158.14 196.768C1175.68 196.768 1193.22 196.768 1210.76 196.768C1227.18 196.768 1241.36 197.079 1257.12 200.08C1265.88 201.748 1275.52 205.047 1284.35 205.047C1292.17 205.047 1300.39 204.191 1307.9 206.335C1319.03 209.514 1353.81 202.947 1342.31 201.735C1321.04 199.497 1300.73 198.424 1279.29 198.424C1266.35 198.424 1253.41 198.424 1240.47 198.424C1232.92 198.424 1225.42 199.015 1218.11 197.136C1209.17 194.837 1197.51 193.519 1189.97 188.488" stroke="#362018" stroke-width="10" stroke-linecap="round"/>
<path d="M1034.31 185.176C1044.35 185.176 1054.14 188.488 1064.12 188.488C1069.96 188.488 1072.85 192.35 1077.37 194.743C1079.98 196.126 1089.53 198.262 1092.27 198.423C1098.06 198.764 1102.79 200.079 1108.83 200.079" stroke="#362018" stroke-width="10" stroke-linecap="round"/>
<path d="M761.094 208.357C762.619 208.548 762.19 208.895 762.75 210.013" stroke="#362018" stroke-width="10" stroke-linecap="round"/>
<path d="M582.26 211.67H587.227" stroke="#362018" stroke-width="10" stroke-linecap="round"/>
<path d="M863.758 219.949H865.414" stroke="#362018" stroke-width="10" stroke-linecap="round"/>
<path d="M1171.75 221.605H1188.31" stroke="#362018" stroke-width="10" stroke-linecap="round"/>
<path d="M1478.09 191.799C1491.4 189.302 1508.6 186.026 1522.43 188.855C1532.86 190.99 1543.36 196.37 1554.16 195.019C1561.1 194.151 1582.41 163.172 1582.41 186.832C1582.41 195.079 1581.09 189.795 1587.37 190.143C1601.91 190.951 1585.6 202.075 1580.84 204.218C1572.97 207.759 1564.4 206.702 1555.91 206.702C1548 206.702 1541.04 208.729 1533.47 210.106C1526.41 211.389 1523.2 213.494 1518.56 207.53C1518.07 206.897 1512.9 202.048 1514.33 201.366C1520.94 198.219 1530.37 196.767 1537.7 196.767C1545.98 196.767 1554.26 196.767 1562.54 196.767C1570.45 196.767 1587.32 197.065 1569.16 201.366C1562.91 202.846 1555.68 201.398 1549.29 201.734C1545.08 201.956 1542.29 205.046 1537.79 205.046C1533.65 205.046 1529.51 205.046 1525.37 205.046C1519.14 205.046 1511.2 206.323 1505.5 203.758C1497.19 200.02 1487.15 202.419 1478.91 199.251C1472.98 196.967 1464.41 198.423 1458.12 198.423C1444.37 198.423 1430.56 198.03 1416.82 198.423C1407.17 198.698 1397.67 201.734 1387.93 201.734C1377.17 201.734 1366.41 201.734 1355.64 201.734C1348.79 201.734 1343.12 202.891 1349.02 195.019C1355.05 186.976 1352.14 173.545 1363.83 175.609C1366.59 176.096 1375.53 177.975 1376.89 181.036C1378.5 184.659 1377.45 185.709 1382.23 187.568C1387.98 189.802 1395.75 188.688 1401.92 189.775C1406.49 190.583 1410.5 191.799 1415.16 191.799C1422.98 191.799 1413.81 199.495 1418.47 200.079C1425.36 200.939 1432.97 201.734 1440.74 201.734C1455.04 201.734 1466.95 199.378 1480.66 196.767C1487.85 195.397 1496.93 191.174 1502.19 185.912C1504.24 183.856 1506.35 181.875 1508.81 180.3C1509.55 179.828 1518.15 176.22 1518.01 175.609C1517.29 172.387 1498.65 179.241 1495.93 180.208C1489.92 182.344 1483.62 181.864 1477.35 181.864C1470.3 181.864 1463.72 184.303 1456.74 185.176C1447.33 186.352 1439.71 188.487 1430.07 188.487" stroke="#362018" stroke-width="10" stroke-linecap="round"/>
<path d="M1009.8 215.625C1013.59 215.625 1019.62 218.314 1012.49 218.314C1007.04 218.314 1007.45 213.09 1012.49 215.326C1016.47 217.097 1017.48 216.663 1020.85 219.359C1023.87 221.771 1028.88 221.002 1032.65 221.002" stroke="#362018" stroke-width="3" stroke-linecap="round"/>
<path d="M919.738 215.626C922.286 215.944 920.599 219.124 918.992 219.584C916.214 220.377 912.742 219.356 910.329 218.015C902.597 213.72 911.849 206.599 914.362 210.996C915.063 212.224 919.936 213.486 918.095 215.327C916.03 217.392 915.362 215.195 913.764 214.281C912.79 213.725 908.063 212.762 910.628 215.327C912.365 217.064 914.244 215.39 915.706 218.314" stroke="#362018" stroke-width="3" stroke-linecap="round"/>
<path d="M918.393 216.97C917.274 216.97 913.484 217.6 913.091 216.223C912.4 213.806 913.486 212.938 910.328 212.938" stroke="#362018" stroke-width="3" stroke-linecap="round"/>
<path d="M826.988 211.594C827.361 214.578 835.702 216.803 831.693 213.685C827.023 210.053 833.162 215.182 834.456 215.552C836.982 216.273 838.532 219.062 841.476 219.062C843.903 219.062 837.225 216.712 835.053 215.626" stroke="#362018" stroke-width="3" stroke-linecap="round"/>
<path d="M660.308 212.936C651.781 212.936 643.364 214.281 634.768 214.281C631.967 214.281 623.475 216.872 631.034 215.326C636.987 214.108 647.796 214.343 652.541 210.547C653.88 209.475 664.297 210.248 656.275 210.248C650.619 210.248 645.671 210.758 640.219 211.667C636.275 212.324 625.155 214.065 628.868 215.55C639.125 219.653 647.989 211.592 657.619 211.592" stroke="#362018" stroke-width="3" stroke-linecap="round"/>
<path d="M697.945 208.904C702.809 208.904 703.868 210.047 707.056 213.236C710.637 216.817 702.162 216.556 700.932 215.327C700.394 214.788 696.63 207.873 699.29 209.203C700.283 209.7 705.862 213.984 706.01 214.281" stroke="#362018" stroke-width="3" stroke-linecap="round"/>
<path d="M703.322 212.938C702.369 212.819 701.468 212.011 700.634 211.594" stroke="#362018" stroke-width="3" stroke-linecap="round"/>
<path d="M1243.69 223.691C1248.92 223.691 1254.28 222.347 1259.15 222.347C1261.6 222.347 1264.1 222.203 1266.54 222.347C1267.63 222.411 1269.52 226.008 1268.48 226.305C1264.32 227.493 1258.07 222.508 1254.14 221.302C1251.29 220.422 1239.93 220.2 1241 222.347" stroke="#362018" stroke-width="3" stroke-linecap="round"/>
<path d="M1261.16 223.691H1263.85" stroke="#362018" stroke-width="3" stroke-linecap="round"/>
<path d="M1262.82 224.918H1267.79" stroke="#362018" stroke-width="3" stroke-linecap="round"/>
<path d="M1327.4 211.67C1327.4 214.561 1334.2 217.901 1337.34 218.293C1338.99 218.5 1348.26 221.955 1340.65 217.925C1334.16 214.487 1338.61 210.281 1338.99 213.326C1339.48 217.203 1345.93 218.91 1347.27 221.605" stroke="#362018" stroke-width="3" stroke-linecap="round"/>
<path d="M1335.68 213.326C1334.51 213.473 1333.4 214.468 1332.37 214.982" stroke="#362018" stroke-width="3" stroke-linecap="round"/>
<path d="M1380.39 218.294C1380.72 215.644 1391.3 211.808 1393.64 211.67C1396.65 211.493 1399.73 211.67 1402.74 211.67C1405.52 211.67 1406.41 216.147 1409.28 217.374C1410.99 218.11 1414.05 211.425 1414.8 210.014C1416.85 206.137 1415.39 210.824 1414.34 211.67C1411.63 213.837 1413.4 215.268 1408.54 214.982C1403.39 214.679 1411.5 212.024 1407.25 211.67C1404.1 211.407 1401.81 207.279 1398.42 206.795C1394.68 206.261 1392.14 205.047 1388.3 205.047C1382.62 205.047 1377.67 205.394 1373.03 209.187C1368.47 212.917 1370.32 214.368 1374.59 213.418C1396.09 208.641 1364.81 211.67 1387.01 211.67" stroke="#362018" stroke-width="3" stroke-linecap="round"/>
<path d="M1108.83 196.768C1115.59 197.519 1114.68 205.047 1122.07 205.047C1128.7 205.047 1135.32 205.047 1141.94 205.047" stroke="#362018" stroke-width="3" stroke-linecap="round"/>
<path d="M1557.57 219.949C1563.61 220.703 1543.15 221.605 1553.43 221.605C1556.02 221.605 1557.03 218.293 1554.26 218.293C1551.78 218.293 1552.95 221.605 1549.29 221.605" stroke="#362018" stroke-width="3" stroke-linecap="round"/>
<path d="M1497.96 218.294C1497.96 224.525 1491.7 219.69 1497.04 216.638C1501.43 214.125 1498.98 218.61 1496.3 219.95" stroke="#362018" stroke-width="3" stroke-linecap="round"/>
<path d="M1516.17 224.916C1515.6 229.452 1517.83 221.349 1517.83 226.572C1517.83 228.597 1514.12 229.013 1516.17 224.916Z" stroke="#362018" stroke-width="3" stroke-linecap="round"/>
<path d="M1426.75 221.605C1428.73 221.605 1425.28 220.928 1425.28 219.213C1425.28 216.752 1427.53 221.473 1427.67 221.513C1430.94 222.447 1422.94 218.293 1430.07 218.293" stroke="#362018" stroke-width="3" stroke-linecap="round"/>
<path d="M1582.41 218.293C1582.41 219.397 1583.51 221.605 1582.41 221.605" stroke="#362018" stroke-width="3" stroke-linecap="round"/>
<path d="M1075.71 218.294C1078.57 218.294 1092.73 225.551 1095.21 220.87C1098.68 214.314 1082.15 216.824 1079.39 214.614C1075.28 211.325 1076.54 218.294 1083.99 218.294C1091.69 218.294 1096.06 218.294 1085.65 218.294" stroke="#362018" stroke-width="3" stroke-linecap="round"/>
<path d="M453.102 211.669C446.317 211.669 444.087 212.037 438.935 214.981C433.178 218.271 447.302 218.728 449.79 217.557C454.793 215.202 478.239 208.357 463.037 208.357C458.735 208.357 455.807 208.886 452.182 209.921C451.306 210.172 438.336 214.599 444.823 214.981C450.208 215.298 455.711 214.981 461.105 214.981C461.34 214.981 458.331 211.669 454.758 211.669" stroke="#362018" stroke-width="5" stroke-linecap="round"/>
<path d="M494.499 213.326C499.75 213.326 508.841 213.186 513.082 216.269C520.287 221.51 511.114 215.161 506.458 214.982C503.769 214.878 496.641 208.495 501.123 210.382C506.429 212.616 512.263 213.175 517.681 214.982" stroke="#362018" stroke-width="5" stroke-linecap="round"/>
<path d="M540.863 205.047H545.831" stroke="#362018" stroke-width="5" stroke-linecap="round"/>
<path d="M59.0049 201.734C62.9265 203.81 70.2647 208.357 74.7357 208.357C76.2172 208.357 90.4161 209.043 86.7867 205.414C83.8372 202.464 75.0355 207.697 72.2518 204.218C70.409 201.914 61.845 200.078 59.0049 200.078" stroke="#362018" stroke-width="5" stroke-linecap="round"/>
<path d="M105.369 186.832C105.857 190.737 111.338 196.409 113.281 200.079C116.577 206.306 120.797 210.624 116.224 200.171C112.304 191.211 118.616 193.287 118.616 200.907C118.616 202.402 121.692 206.962 119.352 204.311C118.368 203.196 118.616 196.576 118.616 198.423" stroke="#362018" stroke-width="5" stroke-linecap="round"/>
<path d="M52.3819 188.488C50.8884 192.221 44.1025 193.004 44.1025 197.411C44.1025 200.049 48.1827 193.991 50.542 192.811C52.8186 191.673 55.0716 190.546 57.3495 189.407C62.2116 186.976 61.6064 188.488 55.6936 188.488C50.6051 188.488 49.7293 189.152 45.7584 191.799" stroke="#362018" stroke-width="5" stroke-linecap="round"/>
<path d="M595.507 195.111C596.21 198.625 599.153 204.109 602.958 204.955C607.702 206.009 599.814 200.409 603.786 198.423" stroke="#362018" stroke-width="5" stroke-linecap="round"/>
<path d="M799.18 196.768C796.753 198.501 786.117 200.897 786.117 204.127C786.117 205.557 789.793 205.27 790.532 204.679C797.459 199.137 788.904 206.821 785.289 208.267C781.758 209.679 792.893 208.359 796.696 208.359C800.224 208.359 805.225 203.969 807.459 201.735" stroke="#362018" stroke-width="5" stroke-linecap="round"/>
<path d="M1016.1 198.424C1014.03 199.114 994.388 205.047 1004.51 205.047C1010.74 205.047 1018.17 206.284 1022.72 201.736" stroke="#362018" stroke-width="5" stroke-linecap="round"/>
<path d="M961.454 200.078C961.727 202.811 962.631 206.763 964.398 208.725C965.441 209.885 967.016 215.858 967.25 215.625C967.77 215.105 969.629 208.877 969.825 209.369C971.127 212.623 971.389 214.746 971.389 218.293" stroke="#362018" stroke-width="5" stroke-linecap="round"/>
<path d="M1305.88 210.014C1305.88 214.677 1300.87 227.607 1303.58 223.813C1306.03 220.382 1307.46 216.777 1309.19 213.325" stroke="#362018" stroke-width="5" stroke-linecap="round"/>
</svg>
