<?xml version="1.0" encoding="iso-8859-1"?>
<!-- Uploaded to: SVG Repo, www.svgrepo.com, Generator: SVG Repo Mixer Tools -->
<svg height="800px" width="800px" version="1.1" id="Layer_1" xmlns="http://www.w3.org/2000/svg" xmlns:xlink="http://www.w3.org/1999/xlink" 
	 viewBox="0 0 511.845 511.845" xml:space="preserve">
<path style="fill:#8AC054;" d="M156.945,40.722c0,0-5.154,81.14,32.881,120.081c23.321,23.875,61.559,24.344,85.451,1.069l0,0
	c23.836-23.352,24.258-61.59,0.938-85.466C238.186,37.465,156.945,40.722,156.945,40.722z"/>
<path style="fill:#79AA41;" d="M269.224,151.595c-3.718-5.562-9.139-12.746-16.121-21.361
	c-11.684-14.409-23.665-27.827-24.211-28.437c-1.812-2.03-4.405-3.374-7.341-3.538c-5.873-0.336-10.903,4.163-11.247,10.036
	c-0.156,2.937,0.875,5.67,2.702,7.701c18.838,21.087,40.363,47.86,42.362,54.124c-0.25-0.789-0.531-3.687,1.422-6.553l17.611,11.98
	C279.853,167.512,273.448,157.929,269.224,151.595z"/>
<path style="fill:#9ED36A;" d="M397.818,0c0,0-104.25,8.153-146.917,63.652c-26.164,34.028-19.822,82.803,14.152,109.014l0,0
	c34.044,26.102,82.811,19.705,108.975-14.315C416.702,102.844,397.818,0,397.818,0z"/>
<path style="fill:#8AC054;" d="M340.788,81.343c-0.969-5.804-6.467-9.716-12.263-8.748c-1.593,0.266-3.03,0.883-4.265,1.734
	l-0.016-0.008c-1.124,0.773-27.882,19.346-51.375,52.804c-13.894,19.783-23.781,40.715-29.374,62.208
	c-7.044,27.022-7.294,54.913-0.75,82.896l20.744-4.866c-10.404-44.471-1.516-87.34,26.405-127.422
	c21.274-30.514,46.173-47.892,46.423-48.063V91.87C339.616,89.598,341.49,85.56,340.788,81.343z"/>
<path style="fill:#424953;" d="M102.368,405.846c0,0,77.742-170.152,147.58-171.112c69.831-0.961,147.573,171.112,147.573,171.112
	H102.368z"/>
<path style="fill:#EAC6BB;" d="M450.582,367.686c-3.343-0.266-7.014-0.391-11.028-0.391c-26.227,0-67.057,5.576-123.009,15.463
	c-6.967-19.868-51.18-28.568-51.18-28.568s-95.456-5.202-156.39-8.514c-3.889-0.219-7.654-0.344-11.262-0.344
	c-80.709,0-97.486,50.391-97.486,50.391v52.188c0.031,29.913,92.238,44.564,92.55,44.627
	c73.243,14.465,163.278,19.307,163.278,19.307s246.697-96.908,253.18-102.578C515.702,403.596,512.861,372.684,450.582,367.686z"/>
<path style="fill:#DBADA2;" d="M385.68,371.777c-19.384,2.562-41.972,6.201-67.808,10.73c-3.295,1.469-6.686,2.969-10.168,4.453
	c-67.69,28.881-115.567,34.941-143.808,34.941c-5.889,0-10.653,4.78-10.653,10.653c0,5.904,4.764,10.653,10.653,10.653
	c44.049,0,95.376-12.371,152.508-36.785C350.972,391.647,376.745,377.041,385.68,371.777z"/>
</svg>